<svg xmlns="http://www.w3.org/2000/svg" viewBox="0 0 80 72" role="img" aria-label="Lovely Home">
  <ellipse cx="40" cy="66.8" rx="29" ry="3.4" fill="#2F5A43" opacity=".18"/>
  <path d="M10 64.5c.8-12 4.2-18.5 10.4-25" fill="none" stroke="#2F5A43" stroke-width="1.7" stroke-linecap="round"/>
  <ellipse cx="13.4" cy="52.2" rx="3.4" ry="1.55" fill="#3F7A5C" transform="rotate(-38 13.4 52.2)"/>
  <ellipse cx="17.8" cy="44.6" rx="3.6" ry="1.65" fill="#2F5A43" transform="rotate(28 17.8 44.6)"/>
  <ellipse cx="12.2" cy="58.4" rx="3" ry="1.4" fill="#3F7A5C" transform="rotate(-18 12.2 58.4)"/>
  <circle cx="9.2" cy="41.6" r="2.55" fill="#C45C4A"/>
  <circle cx="15.1" cy="37.8" r="2.85" fill="#D4786A"/>
  <circle cx="8.1" cy="48.8" r="2.2" fill="#C45C4A"/>
  <circle cx="16.6" cy="47.2" r="2.05" fill="#E08B7A"/>
  <circle cx="11.8" cy="40.6" r="1.15" fill="#F4F1EA"/>
  <path d="M62.4 12.4c2.4-3.4.8-6.8-1.8-7.1 3 .4 5.2 3.2 4.4 6.7-.5 2.2-2.4 3.5-3.8 3.2" fill="none" stroke="#2F5A43" stroke-width="1.35" stroke-linecap="round" opacity=".5"/>
  <path d="M66 8.6c1.7-2.4.5-4.6-1.4-4.8" fill="none" stroke="#2F5A43" stroke-width="1.15" stroke-linecap="round" opacity=".38"/>
  <rect x="54.2" y="17.2" width="7.6" height="15.2" rx="1" fill="#2F5A43"/>
  <rect x="52.6" y="15.4" width="10.8" height="3.6" rx="1.1" fill="#2F5A43"/>
  <path fill="#2F5A43" d="M16.2 37.2 40 11.6 63.8 37.2l-2.4 2.8H18.6z"/>
  <path fill="#3F7A5C" d="M40 15.2 23.4 33.8h33.2z" opacity=".28"/>
  <path fill="#F4F1EA" d="M22 37.6h36v25.2H22z"/>
  <path fill="none" stroke="#2F5A43" stroke-width="1.85" d="M22 37.6h36v25.2H22z"/>
  <circle cx="40" cy="24.8" r="3.55" fill="#F4F1EA"/>
  <circle cx="40" cy="24.8" r="1.65" fill="#2F5A43"/>
  <rect x="38.8" y="41.4" width="14.2" height="12" rx="1.05" fill="#2F5A43"/>
  <rect x="40.15" y="42.7" width="5" height="4.2" fill="#F4F1EA"/>
  <rect x="46.65" y="42.7" width="5" height="4.2" fill="#F4F1EA"/>
  <rect x="40.15" y="47.7" width="5" height="4.2" fill="#F4F1EA"/>
  <rect x="46.65" y="47.7" width="5" height="4.2" fill="#F4F1EA"/>
  <rect x="38.2" y="53.2" width="15.4" height="2.15" rx=".55" fill="#C45C4A"/>
  <circle cx="41.2" cy="52.55" r="1.05" fill="#D4786A"/>
  <circle cx="45.9" cy="52.25" r="1.2" fill="#C45C4A"/>
  <circle cx="50.6" cy="52.55" r="1.05" fill="#E08B7A"/>
  <path fill="#C45C4A" d="M27.1 62.8V50.6c0-4.6 8.8-4.6 8.8 0v12.2z"/>
  <circle cx="33.9" cy="55.6" r=".95" fill="#F4F1EA"/>
  <rect x="25.8" y="61.4" width="11.4" height="1.7" rx=".45" fill="#2F5A43"/>
</svg>
